<?xml version="1.0" standalone="no"?>
<!DOCTYPE svg PUBLIC "-//W3C//DTD SVG 20010904//EN"
 "http://www.w3.org/TR/2001/REC-SVG-20010904/DTD/svg10.dtd">
<svg version="1.0" xmlns="http://www.w3.org/2000/svg"
 width="208.000000pt" height="242.000000pt" viewBox="0 0 208.000000 242.000000"
 preserveAspectRatio="xMidYMid meet">
<metadata>
Created by potrace 1.11, written by Peter Selinger 2001-2013
</metadata>
<g transform="translate(0.000000,242.000000) scale(0.100000,-0.100000)"
fill="#000000" stroke="none">
<path d="M30 2279 c0 -12 5 -38 10 -58 13 -46 106 -430 164 -681 25 -107 61
-258 80 -335 18 -77 53 -221 76 -320 23 -99 46 -197 51 -217 l10 -38 209 0
c209 0 210 0 215 23 7 29 50 232 81 382 13 66 40 215 59 330 51 304 46 283 55
260 5 -11 9 -36 9 -55 1 -19 15 -114 31 -210 42 -242 45 -259 75 -400 15 -69
29 -136 31 -150 3 -14 12 -59 22 -100 l17 -75 206 -3 c158 -2 208 1 216 10 5
7 26 83 46 168 47 196 160 676 212 895 14 61 48 200 75 310 27 110 52 219 56
243 l7 42 -234 -2 -233 -3 -18 -110 c-10 -60 -26 -164 -37 -230 -11 -66 -34
-223 -51 -350 -18 -126 -34 -237 -37 -245 -3 -8 -16 53 -29 136 -23 156 -57
334 -119 629 -19 93 -35 171 -35 172 0 2 -95 2 -212 1 l-212 -3 -8 -35 c-77
-359 -158 -793 -158 -852 0 -42 -14 -67 -24 -43 -3 9 -6 31 -6 48 0 43 -45
351 -101 693 -16 99 -29 183 -29 187 0 4 -106 7 -235 7 -233 0 -235 0 -235
-21z"/>
</g>
</svg>
